<?xml version="1.0" standalone="no"?>
<!DOCTYPE svg PUBLIC "-//W3C//DTD SVG 20010904//EN"
 "http://www.w3.org/TR/2001/REC-SVG-20010904/DTD/svg10.dtd">
<svg version="1.0" xmlns="http://www.w3.org/2000/svg"
 width="564.000000pt" height="564.000000pt" viewBox="0 0 564.000000 564.000000"
 preserveAspectRatio="xMidYMid meet">

<g transform="translate(0.000000,564.000000) scale(0.100000,-0.100000)"
fill="#000000" stroke="none">
<path d="M0 2820 l0 -2820 1070 0 c589 0 1070 3 1070 6 0 4 -7 12 -15 18 -21
15 -64 142 -63 188 0 59 15 71 70 59 37 -9 62 -7 115 5 71 16 113 9 113 -20 0
-19 36 -26 159 -32 102 -4 201 10 270 37 21 9 28 7 41 -11 10 -14 37 -27 71
-34 l54 -13 -35 -21 c-44 -27 -84 -28 -110 -2 -11 11 -26 20 -32 20 -21 0
-100 -33 -141 -59 -33 -20 -46 -22 -90 -17 -79 10 -91 9 -109 -14 -25 -31 -58
-18 -58 21 0 18 -5 29 -14 29 -7 0 -16 9 -19 21 -5 19 -7 20 -36 4 -26 -13
-104 -22 -136 -15 -23 5 -33 -2 -38 -27 -7 -38 10 -68 54 -98 22 -14 39 -30
39 -35 0 -6 127 -10 350 -10 248 0 350 3 350 11 0 15 29 77 59 124 14 22 26
51 26 65 0 18 17 41 58 78 61 56 81 63 96 34 11 -21 -18 -83 -77 -162 -18 -25
-48 -69 -67 -97 l-34 -53 1325 0 1324 0 0 2820 0 2820 -1816 0 -1816 0 7 -29
c9 -42 72 -200 91 -229 15 -23 19 -24 98 -19 78 6 79 5 36 -7 -44 -12 -43 -13
84 -20 72 -5 137 -12 145 -17 34 -19 87 -24 155 -16 39 4 85 8 101 8 17 0 53
6 80 14 28 7 86 17 130 20 l80 6 100 -51 c115 -60 168 -91 162 -96 -2 -2 -82
-6 -178 -9 -188 -6 -255 -16 -307 -48 -28 -16 -37 -18 -57 -7 -47 25 -124 -16
-112 -60 4 -16 0 -23 -16 -29 -21 -8 -20 -9 10 -25 39 -20 43 -20 43 -1 0 16
7 18 110 34 153 25 306 41 535 56 72 5 94 3 110 -9 23 -18 39 -21 30 -6 -15
24 24 7 65 -29 l45 -39 28 26 c25 24 27 24 27 6 0 -11 -6 -29 -14 -40 -13 -19
-8 -29 79 -146 89 -119 205 -246 270 -296 17 -13 23 -20 15 -16 -19 9 -95 70
-127 102 -20 20 -130 149 -240 281 -38 46 -35 16 4 -35 20 -27 39 -51 42 -54
19 -16 81 -100 81 -108 0 -5 7 -15 15 -22 8 -7 13 -16 10 -20 -3 -4 6 -24 20
-44 14 -20 25 -43 25 -50 0 -8 6 -16 14 -19 14 -6 42 -47 32 -47 -9 0 -66 65
-99 112 -17 26 -36 48 -40 48 -5 0 1 -13 12 -29 12 -16 21 -32 21 -35 0 -7 79
-117 91 -126 3 -3 12 -15 18 -28 11 -21 11 -23 -6 -13 -10 6 -65 58 -122 116
-57 58 -108 105 -112 105 -4 0 -12 6 -16 13 -4 6 -16 13 -25 13 -22 2 -23 -28
-3 -85 8 -22 10 -41 5 -41 -4 0 -30 25 -57 56 -26 31 -66 77 -89 101 l-41 44
7 -44 c3 -24 15 -57 26 -73 10 -16 24 -38 31 -49 53 -88 67 -108 88 -131 41
-44 28 -51 -16 -9 -31 31 -93 107 -126 154 -2 2 -5 2 -7 0 -2 -2 4 -22 15 -44
l19 -40 -25 29 c-13 17 -56 84 -96 150 -65 111 -208 297 -236 310 -11 5 34
-69 150 -242 130 -196 152 -230 184 -288 18 -33 33 -72 32 -85 l0 -24 -10 25
c-8 20 -12 22 -20 10 -8 -13 -10 -13 -19 0 -9 13 -10 13 -10 0 -1 -12 -3 -11
-11 3 -5 9 -15 17 -21 17 -13 0 -44 32 -125 130 -34 41 -75 84 -90 95 -15 11
-48 39 -73 61 -52 47 -159 118 -167 110 -3 -3 19 -31 49 -63 49 -53 98 -133
98 -162 0 -6 14 -40 31 -74 18 -34 33 -78 35 -97 1 -19 6 -45 9 -57 10 -32
-10 -29 -41 5 -26 28 -27 26 -9 -35 9 -33 -4 -28 -52 19 l-43 42 0 -32 c0 -18
16 -64 35 -103 40 -82 43 -94 15 -77 -11 7 -20 21 -20 31 0 10 -4 16 -8 13 -5
-3 -9 0 -9 7 0 30 -79 140 -155 217 -136 138 -227 204 -171 123 54 -76 114
-225 99 -241 -3 -3 -6 0 -6 6 0 7 -5 12 -11 12 -7 0 -8 -14 -4 -40 4 -22 4
-40 1 -40 -3 0 -29 36 -57 80 -28 45 -53 79 -55 77 -2 -2 8 -37 22 -78 26 -76
66 -241 59 -247 -4 -4 -28 48 -46 100 -35 102 -5 -46 35 -174 8 -27 13 -48 11
-48 -3 0 -18 28 -34 63 -26 55 -29 58 -30 32 0 -16 6 -48 14 -70 18 -50 18
-81 0 -40 -7 17 -24 55 -38 85 -14 30 -39 89 -56 130 -53 123 -82 181 -132
256 -48 72 -131 154 -155 154 -8 0 -14 5 -14 10 0 15 -21 12 -42 -6 -14 -14
-21 -14 -33 -4 -12 10 -17 7 -27 -16 -17 -41 -17 -41 -38 -14 l-19 25 -48 -25
c-40 -21 -66 -50 -161 -180 -102 -140 -239 -296 -250 -285 -3 2 13 25 34 50
47 56 95 116 111 141 128 193 172 247 238 296 31 24 35 29 15 23 -33 -10 -84
-49 -128 -97 -19 -21 -39 -38 -44 -38 -5 0 -45 -31 -87 -70 -52 -46 -86 -70
-102 -70 -28 0 -59 -31 -59 -60 0 -29 -17 -33 -34 -8 -13 19 -16 19 -22 5 -3
-9 -10 -15 -15 -12 -4 3 -13 -4 -19 -15 -19 -36 -33 -24 -25 23 4 23 9 61 11
85 4 41 3 42 -25 42 -51 0 -74 -70 -130 -400 -12 -69 -21 -141 -21 -160 0 -19
-5 -42 -10 -50 -8 -13 -10 -12 -10 4 0 34 -14 6 -21 -42 -3 -27 -7 35 -8 143
-1 202 13 329 48 444 19 60 19 121 0 121 -15 0 -56 -155 -58 -217 -1 -12 -10
-30 -20 -40 -15 -14 -21 -37 -25 -108 -3 -49 -9 -110 -14 -135 l-8 -45 -11 45
-11 45 -1 -40 c-2 -69 17 -200 44 -305 44 -176 27 -179 -25 -5 -18 61 -39 122
-46 137 -17 33 -18 141 -3 313 6 70 7 134 3 143 -13 33 -27 -49 -33 -203 l-6
-150 -9 79 c-8 74 -4 207 10 309 5 33 2 47 -11 61 -17 16 -19 15 -35 -22 -26
-58 -39 -133 -44 -255 -4 -110 -10 -133 -26 -107 -39 63 -36 252 5 397 l27 92
-22 36 c-25 40 -35 43 -50 15 -6 -11 -15 -20 -19 -20 -14 0 -34 98 -28 136 3
19 -1 88 -9 152 -20 160 -33 355 -39 557 l-5 170 29 -135 c15 -74 51 -214 78
-310 28 -96 53 -187 57 -202 3 -15 10 -38 16 -52 l9 -24 87 46 86 46 -6 206
c-3 113 -9 278 -12 368 l-7 162 -593 0 -594 0 0 -2820z m3020 1909 c0 -5 4 -8
9 -5 11 7 68 -36 98 -76 70 -93 153 -244 153 -277 0 -15 -15 5 -39 54 -14 28
-78 95 -91 95 -6 0 -9 4 -5 9 3 6 -1 13 -9 18 -7 4 -31 35 -51 68 -21 33 -42
62 -47 63 -4 2 -8 10 -8 18 0 8 -7 17 -15 20 -17 7 -20 24 -5 24 6 0 10 -5 10
-11z m-740 -194 c66 -33 151 -118 183 -184 24 -47 28 -67 30 -166 2 -91 6
-117 20 -132 30 -34 21 -43 -45 -43 -102 0 -183 -33 -278 -110 -25 -20 -58
-44 -75 -53 -16 -8 -41 -25 -54 -36 -28 -24 -61 -28 -61 -6 0 21 -22 19 -46
-4 -36 -33 -61 -35 -85 -7 -13 15 -28 26 -35 26 -6 0 -17 7 -24 15 -7 8 -25
15 -40 15 -15 0 -33 -7 -40 -15 -15 -18 -50 -19 -74 -2 -10 7 -24 39 -31 71
l-14 57 51 56 c55 61 130 136 313 315 66 64 143 141 170 172 28 31 58 56 68
56 10 0 40 -11 67 -25z m1738 -131 c-4 -3 -12 5 -18 18 -12 22 -12 22 6 6 10
-10 15 -20 12 -24z m41 -36 c8 -13 38 -52 66 -88 84 -104 116 -188 114 -298
l-1 -47 -13 64 c-17 76 -58 166 -115 252 -50 75 -83 139 -73 139 5 0 15 -10
22 -22z m-1631 -624 c45 -31 16 -123 -44 -138 -38 -10 -80 10 -94 44 -16 38
-5 67 33 91 39 23 75 24 105 3z m1202 -123 c-1 -13 -29 45 -29 59 0 8 6 0 14
-19 8 -18 15 -36 15 -40z m1213 37 c46 -23 77 -53 77 -73 0 -13 -4 -14 -22 -4
-13 7 -23 10 -24 8 0 -2 -27 20 -60 50 -61 56 -53 61 29 19z m-2995 -46 c16
-11 19 -85 4 -90 -7 -2 -12 -21 -12 -42 0 -26 -5 -40 -16 -44 -10 -4 -14 -14
-11 -26 3 -11 1 -18 -4 -14 -5 3 -9 -10 -9 -28 0 -22 3 -29 9 -19 6 10 13 5
25 -20 13 -26 17 -63 17 -162 1 -71 -2 -131 -5 -134 -3 -4 -6 -2 -6 3 -1 16
-37 57 -37 43 -1 -8 -2 -35 -4 -61 -2 -39 -6 -48 -23 -50 -12 -2 -23 -13 -27
-28 -6 -22 -7 -23 -14 -7 -11 27 2 150 22 200 20 52 30 242 13 262 -8 10 -8
24 -1 52 6 21 11 61 11 90 0 67 29 99 68 75z m1202 -137 c11 -44 26 -98 31
-119 8 -29 13 -36 20 -25 6 9 7 3 3 -17 -4 -19 -1 -34 5 -38 6 -4 11 -13 11
-19 0 -7 -4 -6 -10 3 -13 20 -13 -2 1 -37 12 -31 2 -130 -12 -116 -4 4 -13 51
-19 103 -6 52 -22 150 -35 217 -14 67 -25 126 -25 129 0 20 11 -10 30 -81z
m-1391 65 c23 -12 34 -63 20 -94 -16 -35 -49 -47 -86 -31 -60 25 -70 82 -20
114 35 23 59 26 86 11z m1875 -123 c9 -38 16 -83 15 -100 0 -24 -4 -17 -14 28
-18 78 -29 151 -22 145 3 -3 13 -36 21 -73z m-2279 -287 c4 -26 3 -31 -5 -19
-17 28 -40 142 -39 194 1 46 3 41 20 -45 10 -52 21 -111 24 -130z m-681 95
c12 -13 48 -76 79 -139 63 -128 96 -168 163 -198 47 -20 88 -54 116 -96 8 -12
36 -37 60 -55 70 -50 287 -258 294 -281 12 -45 35 -83 74 -125 22 -24 43 -55
46 -68 6 -23 9 -21 65 39 32 35 58 66 59 71 0 11 30 9 30 -3 0 -5 -13 -24 -29
-42 -15 -18 -59 -80 -96 -137 -73 -110 -144 -176 -274 -255 -73 -45 -227 -117
-298 -140 -28 -9 -57 -24 -63 -32 -7 -7 -18 -14 -24 -14 -6 0 -3 7 7 14 22 17
22 26 0 26 -9 0 -24 6 -32 14 -9 8 -51 17 -101 20 -47 4 -102 11 -122 17 -41
11 -62 4 -111 -37 -39 -33 -64 -30 -102 11 -18 19 -45 37 -59 41 -48 12 -67
58 -45 107 19 43 43 49 208 53 86 2 172 8 191 14 19 5 48 10 64 10 16 0 69 10
117 22 71 17 89 26 89 40 0 12 8 18 24 18 14 0 28 5 31 10 3 6 14 10 23 10 9
0 28 7 42 15 51 29 93 45 117 45 33 0 57 25 49 53 -6 19 -113 107 -131 107
-10 0 -44 42 -55 68 -14 32 -58 47 -80 27 -19 -17 -145 -22 -155 -5 -3 6 -33
10 -65 10 -32 0 -62 -4 -65 -10 -3 -5 -26 -10 -49 -10 -27 0 -48 -6 -56 -15
-7 -8 -16 -15 -21 -15 -5 0 -9 7 -9 15 0 8 -4 15 -10 15 -16 0 -11 43 8 66 9
12 31 29 47 37 17 8 37 26 45 38 8 12 32 42 53 65 49 54 56 96 28 153 -12 23
-35 56 -52 73 -16 17 -29 42 -29 55 0 13 -16 69 -35 124 -36 103 -45 183 -22
192 25 11 38 6 61 -18z m754 -105 c0 -16 -3 -11 -9 15 -4 22 -8 51 -7 65 0 16
3 11 9 -15 4 -22 8 -51 7 -65z m19 -162 c-3 -8 -6 -5 -6 6 -1 11 2 17 5 13 3
-3 4 -12 1 -19z m54 -120 c21 -43 35 -78 30 -78 -12 0 -81 139 -80 164 0 14 2
16 6 6 3 -8 23 -50 44 -92z m313 -98 c10 -52 26 -109 36 -126 9 -16 20 -48 24
-70 4 -21 9 -52 12 -69 4 -23 3 -26 -5 -15 -23 32 -101 317 -101 366 0 51 16
11 34 -86z m157 13 c6 -16 13 -51 16 -79 5 -43 2 -56 -17 -82 -27 -36 -36 -34
-45 11 -4 17 -14 52 -23 77 -21 64 -11 100 28 100 24 0 33 -6 41 -27z m71
-302 c5 -31 3 -52 -7 -71 -33 -63 -58 -44 -49 35 12 93 43 113 56 36z m-1632
-81 c0 -5 -8 -10 -17 -10 -15 0 -16 2 -3 10 19 12 20 12 20 0z m25 0 c3 -5 1
-10 -4 -10 -6 0 -11 5 -11 10 0 6 2 10 4 10 3 0 8 -4 11 -10z m1653 -166 c38
6 40 5 46 -25 8 -44 7 -112 -3 -127 -10 -17 -13 -13 -81 103 -39 67 -46 84
-27 66 22 -20 33 -23 65 -17z m-660 -692 c30 -17 28 -50 -3 -64 -20 -9 -41 -8
-99 6 -77 18 -116 38 -116 60 0 18 186 16 218 -2z m-233 -45 c9 -45 3 -90 -12
-94 -29 -10 -59 109 -30 120 27 11 36 6 42 -26z m-43 -242 c-2 -14 -8 -25 -13
-25 -12 0 -11 7 1 31 14 26 18 24 12 -6z m2268 -80 c0 -8 -7 -15 -15 -15 -16
0 -20 12 -8 23 11 12 23 8 23 -8z m-2990 -37 c19 -6 53 -18 75 -28 86 -38 165
-53 165 -30 0 28 16 60 31 60 5 0 30 -19 54 -41 66 -61 63 -91 -12 -159 -95
-85 -137 -95 -208 -47 -57 39 -216 191 -226 216 -15 37 13 62 54 49 18 -5 48
-14 67 -20z m674 10 c-3 -13 -15 -35 -26 -50 l-19 -28 35 0 c42 0 40 3 21 -43
-14 -34 -36 -47 -83 -47 -36 0 -36 25 0 78 19 27 40 63 47 80 15 36 36 44 25
10z m4014 -40 c-2 -6 -13 -12 -24 -13 -10 -1 -37 -5 -59 -8 -36 -6 -34 -5 15
13 66 23 73 23 68 8z m-3598 -49 c-7 -11 -14 -18 -17 -15 -8 8 5 36 17 36 7 0
7 -6 0 -21z m3470 16 c0 -5 -96 -54 -135 -69 -36 -13 -2 11 59 43 56 30 76 37
76 26z m-1647 -477 c10 2 34 13 55 24 52 30 27 6 -33 -30 -46 -29 -50 -30 -57
-13 -3 11 -5 27 -3 37 2 11 4 28 6 39 1 11 5 2 8 -20 5 -31 10 -39 24 -37z
m-2106 -46 c17 -2 34 -10 37 -19 8 -20 8 -20 -39 -27 -56 -9 -86 -33 -117 -96
-16 -33 -27 -47 -28 -35 0 27 33 117 73 193 l32 64 5 -39 c4 -34 8 -38 37 -41z
m81 -113 c-3 -8 -7 -3 -11 10 -4 17 -3 21 5 13 5 -5 8 -16 6 -23z m-104 -135
c9 -8 16 -23 16 -32 0 -12 -6 -10 -27 10 -16 14 -37 28 -48 31 -13 3 -9 5 12
6 17 0 39 -6 47 -15z m-6 -145 c-3 -8 -7 -3 -11 10 -4 17 -3 21 5 13 5 -5 8
-16 6 -23z"/>
<path d="M1800 3309 c0 -5 5 -7 10 -4 6 3 10 8 10 11 0 2 -4 4 -10 4 -5 0 -10
-5 -10 -11z"/>
<path d="M1375 5603 c9 -51 63 -214 76 -230 6 -7 16 -11 22 -10 5 1 13 -8 16
-21 3 -13 10 -23 14 -22 5 1 21 -16 37 -37 57 -75 65 -83 83 -83 9 0 17 -7 17
-15 0 -18 9 -15 126 41 50 24 96 44 101 44 6 0 17 8 26 18 16 17 20 85 18 270
l-1 82 -271 0 -271 0 7 -37z"/>
<path d="M2758 5233 c7 -3 16 -2 19 1 4 3 -2 6 -13 5 -11 0 -14 -3 -6 -6z"/>
<path d="M2272 4879 c-24 -11 -46 -28 -49 -37 -3 -9 -12 -24 -20 -33 -13 -16
-9 -49 7 -49 4 0 13 7 20 15 7 8 29 15 49 15 28 0 43 7 60 26 22 25 51 26 76
3 5 -5 13 -9 19 -9 5 0 -17 20 -50 45 -32 24 -61 44 -64 44 -3 0 -24 -10 -48
-20z"/>
<path d="M2450 4788 c5 -7 19 -25 30 -40 13 -17 27 -25 36 -21 11 4 5 14 -23
39 -37 33 -64 46 -43 22z"/>
<path d="M2257 4683 c-3 -5 8 -15 25 -22 17 -8 65 -46 107 -85 44 -42 64 -57
48 -36 -47 63 -170 160 -180 143z"/>
<path d="M1208 4635 c-7 -9 -19 -22 -26 -30 -27 -30 -70 -127 -65 -146 3 -11
7 -18 8 -17 9 10 104 208 100 208 -2 0 -10 -7 -17 -15z"/>
<path d="M1181 4074 c0 -11 3 -14 6 -6 3 7 2 16 -1 19 -3 4 -6 -2 -5 -13z"/>
</g>
</svg>
